<svg width="147" height="147" viewBox="0 0 147 147" fill="none" xmlns="http://www.w3.org/2000/svg">
<path d="M40.9478 106.052L43.8367 103.163L53.7204 113.049L50.8335 115.936L40.9478 106.052Z" fill="#92D3F5"/>
<path d="M31.064 96.1665L33.9529 93.2776L43.8366 103.163L40.9497 106.05L31.064 96.1665Z" fill="#EA5A47"/>
<path d="M57.624 71.3277L60.5109 68.4408L69.5351 77.465L66.6482 80.3519L57.624 71.3277Z" fill="#92D3F5"/>
<path d="M66.6482 80.3518L69.5351 77.4629L78.5593 86.4871L75.6703 89.374L66.6482 80.3518Z" fill="#EA5A47"/>
<path d="M74.1533 72.8466L77.0402 69.9597L86.9239 79.8455L84.037 82.7324L74.1533 72.8466Z" fill="#92D3F5"/>
<path d="M64.2656 62.963L67.1525 60.076L77.0383 69.9598L74.1493 72.8487L64.2656 62.963Z" fill="#EA5A47"/>
<path d="M85.2355 61.7645L81.6993 65.3006L75.7744 59.3737L77.8937 57.2565L85.2355 61.7645Z" fill="#92D3F5"/>
<path d="M89.9108 68.941L87.6262 71.2256L81.6992 65.3007L85.2354 61.7645L89.9108 68.941Z" fill="#EA5A47"/>
<path d="M100.93 46.0703L103.817 43.1833L112.841 52.2075L109.954 55.0944L100.93 46.0703Z" fill="#92D3F5"/>
<path d="M91.9055 37.0461L94.7924 34.1592L103.817 43.1833L100.93 46.0703L91.9055 37.0461Z" fill="#EA5A47"/>
<path d="M109.654 37.3461L112.541 34.4592L122.426 44.3429L119.538 47.2319L109.654 37.3461Z" fill="#92D3F5"/>
<path d="M99.7681 27.4604L102.655 24.5735L112.541 34.4572L109.652 37.3462L99.7681 27.4604Z" fill="#EA5A47"/>
<path d="M32.1787 114.821L35.0677 111.932L44.9514 121.818L42.0645 124.705L32.1787 114.821Z" fill="#92D3F5"/>
<path d="M22.2949 104.936L25.1818 102.047L35.0655 111.932L32.1786 114.819L22.2949 104.936Z" fill="#EA5A47"/>
<path d="M99.66 65.0108C101.277 73.0958 100.426 82.2343 91.33 91.3279C82.2344 100.421 73.0959 101.277 65.0129 99.6579C60.6641 98.78 56.6094 97.1752 53.014 95.7767C52.5785 95.5997 52.1497 95.4309 51.7278 95.2703C42.3606 91.6464 36.9461 90.2744 30.8109 96.4116L21.7459 105.477C19.5511 107.671 15.9986 107.671 13.8038 105.477C11.609 103.282 11.609 99.7314 13.8038 97.5366L22.8688 88.4716C31.1294 80.2131 39.6166 80.0109 47.3402 81.9893C50.7764 82.8264 54.0675 84.1249 57.1137 85.3233C58.255 85.7725 59.3514 86.2033 60.4069 86.5933C69.6597 90.0151 75.8684 90.9114 83.3899 83.3878C90.9114 75.8684 90.0151 69.6597 86.5954 60.4048C87.6489 60.7948 88.7452 61.2296 89.8865 61.6768C92.9327 62.8752 96.2239 64.1737 99.66 65.0108ZM105.477 13.8038C105.998 14.3252 106.412 14.9442 106.694 15.6256C106.977 16.307 107.122 17.0373 107.122 17.7748C107.122 18.5123 106.977 19.2427 106.694 19.924C106.412 20.6054 105.998 21.2245 105.477 21.7458L96.4117 30.8108C90.2744 36.9461 91.6464 42.3606 95.2704 51.7298C94.8401 51.5648 94.4114 51.396 93.9841 51.2234C90.3908 49.8249 86.334 48.2222 81.9894 47.3402C80.011 39.6166 80.2131 31.1293 88.4716 22.8708L97.5366 13.8058C98.058 13.2842 98.6771 12.8704 99.3585 12.588C100.04 12.3057 100.77 12.1604 101.508 12.1604C102.245 12.1604 102.976 12.3057 103.657 12.588C104.338 12.8704 104.957 13.2842 105.479 13.8058" fill="#92D3F5"/>
<path d="M53.0138 95.7746C56.6072 97.1773 60.666 98.78 65.0107 99.6599C66.9891 107.384 66.7869 115.871 58.5284 124.129L49.4634 133.194C47.2686 135.391 43.7161 135.391 41.5213 133.194C39.3265 130.997 39.3286 127.451 41.5213 125.256L50.5883 116.191C56.7256 110.054 55.3536 104.64 51.7296 95.2703C52.1502 95.4323 52.579 95.6011 53.0159 95.7767M133.196 41.5235C134.249 42.5764 134.841 44.0044 134.841 45.4935C134.841 46.9825 134.249 48.4106 133.196 49.4635L124.131 58.5285C115.871 66.787 107.383 66.9892 99.6598 65.0108C96.2237 64.1737 92.9325 62.8752 89.8864 61.6767C88.7929 61.2424 87.6951 60.8191 86.5931 60.4068C77.3403 56.985 71.1316 56.0887 63.6101 63.6122C56.0886 71.1358 56.9849 77.3404 60.4047 86.5953C59.3512 86.2053 58.2548 85.7705 57.1135 85.3233C54.0673 84.1249 50.7762 82.8264 47.3401 81.9893C45.7231 73.9043 46.5744 64.7658 55.6701 55.6722C64.7657 46.5786 73.9042 45.7232 81.9871 47.3422C86.3359 48.2201 90.3906 49.8228 93.986 51.2234C94.4216 51.4004 94.8503 51.5691 95.2723 51.7297C104.639 55.3537 110.054 56.7237 116.189 50.5885L125.254 41.5235C125.776 41.0018 126.395 40.588 127.076 40.3057C127.757 40.0234 128.488 39.8781 129.225 39.8781C129.963 39.8781 130.693 40.0234 131.374 40.3057C132.056 40.588 132.675 41.0018 133.196 41.5235Z" fill="#EA5A47"/>
<path d="M47.3524 81.977C45.7314 73.8859 46.5848 64.7657 55.6743 55.6742C69.6617 41.6888 83.7207 47.2013 93.9862 51.2275C104.162 55.2169 109.768 57.0013 116.187 50.5843L125.252 41.5193C126.308 40.478 127.732 39.8964 129.214 39.9014C130.697 39.9064 132.117 40.4975 133.166 41.5458C134.214 42.5942 134.805 44.0146 134.81 45.4971C134.815 46.9797 134.234 48.404 133.192 49.4594L124.127 58.5244C112.214 70.4375 99.8335 65.5824 89.8885 61.6828C78.7206 57.3035 71.9974 55.2332 63.6143 63.6142C56.0928 71.1357 56.9871 77.324 60.415 86.583M65.0292 99.6456C66.9831 107.386 66.783 115.869 58.5244 124.125L49.4594 133.19C48.4044 134.232 46.9802 134.814 45.4976 134.809C44.0151 134.805 42.5945 134.214 41.5459 133.166C40.4973 132.118 39.9058 130.697 39.9004 129.215C39.8951 127.732 40.4763 126.308 41.5174 125.252L50.5824 116.187C56.7257 110.046 55.3558 104.646 51.7277 95.2723" stroke="black" stroke-width="0.5" stroke-miterlimit="10"/>
<path d="M81.9689 47.3524C80.0171 39.6124 80.2192 31.1314 88.4757 22.8728L97.5407 13.8078C98.5939 12.7546 100.022 12.163 101.512 12.163C103.001 12.163 104.43 12.7546 105.483 13.8078C106.536 14.861 107.128 16.2894 107.128 17.7789C107.128 19.2683 106.536 20.6967 105.483 21.7499L96.4178 30.8149C90.2724 36.9562 91.6444 42.3565 95.2704 51.7297M99.6477 65.0292C101.269 73.1182 100.413 82.2363 91.3259 91.3258C77.3384 105.311 63.2795 99.7987 53.014 95.7726C42.8384 91.7832 37.2319 89.9987 30.8129 96.4157L21.7479 105.481C20.6926 106.522 19.2683 107.104 17.7857 107.099C16.3032 107.094 14.8827 106.503 13.8344 105.454C12.7861 104.406 12.1949 102.985 12.19 101.503C12.185 100.02 12.7666 98.596 13.8079 97.5407L22.8729 88.4757C34.786 76.5625 47.1647 81.4176 57.1117 85.3192C68.2796 89.6966 75.0028 91.7668 83.3859 83.3837C90.9074 75.8622 90.0111 69.676 86.5852 60.415" stroke="black" stroke-width="0.5" stroke-miterlimit="10"/>
<path d="M104.092 23.1382L123.862 42.9076M95.3704 31.9582L115.042 51.6296M71.9157 58.3447L88.6554 75.0843M62.8609 64.3962L82.6039 84.1391M57.9038 74.5433L72.4568 89.0963M36.209 92.8019L54.1981 110.791M26.5479 100.681L46.3194 120.452" stroke="black" stroke-width="0.5" stroke-linecap="round" stroke-linejoin="round"/>
</svg>
